<svg width="154" height="25" viewBox="0 0 154 25" fill="none" xmlns="http://www.w3.org/2000/svg">
<path d="M8.08 7.584C9.95733 7.584 11.4613 8.18133 12.592 9.376C13.7227 10.5493 14.288 12.1493 14.288 14.176V24H11.504V14.336C11.504 13.056 11.152 12.0533 10.448 11.328C9.744 10.6027 8.77333 10.24 7.536 10.24C6.10667 10.24 4.976 10.688 4.144 11.584C3.312 12.4587 2.896 13.7707 2.896 15.52V24H0.112V1.6H2.896V10.304C4.00533 8.49067 5.73333 7.584 8.08 7.584ZM31.4225 10.752V8H34.2065V24H31.4225V21.248C30.0572 23.36 28.0412 24.416 25.3745 24.416C23.1132 24.416 21.2038 23.6053 19.6465 21.984C18.0678 20.3413 17.2785 18.3467 17.2785 16C17.2785 13.6747 18.0678 11.6907 19.6465 10.048C21.2252 8.40533 23.1345 7.584 25.3745 7.584C28.0412 7.584 30.0572 8.64 31.4225 10.752ZM25.7265 21.728C27.3478 21.728 28.7025 21.184 29.7905 20.096C30.8785 18.9653 31.4225 17.6 31.4225 16C31.4225 14.3787 30.8785 13.024 29.7905 11.936C28.7025 10.8267 27.3478 10.272 25.7265 10.272C24.1265 10.272 22.7825 10.8267 21.6945 11.936C20.6065 13.024 20.0625 14.3787 20.0625 16C20.0625 17.6 20.6065 18.9653 21.6945 20.096C22.7825 21.184 24.1265 21.728 25.7265 21.728ZM41.2085 24H38.4245V0.639999H41.2085V24ZM48.2398 24H45.4557V0.639999H48.2398V24ZM65.991 21.984C64.3697 23.6053 62.375 24.416 60.007 24.416C57.639 24.416 55.6443 23.6053 54.023 21.984C52.4017 20.3627 51.591 18.368 51.591 16C51.591 13.632 52.4017 11.6373 54.023 10.016C55.6443 8.39467 57.639 7.584 60.007 7.584C62.375 7.584 64.3697 8.39467 65.991 10.016C67.6337 11.6587 68.455 13.6533 68.455 16C68.455 18.3467 67.6337 20.3413 65.991 21.984ZM60.007 21.696C61.607 21.696 62.951 21.152 64.039 20.064C65.127 18.976 65.671 17.6213 65.671 16C65.671 14.3787 65.127 13.024 64.039 11.936C62.951 10.848 61.607 10.304 60.007 10.304C58.4283 10.304 57.095 10.848 56.007 11.936C54.919 13.024 54.375 14.3787 54.375 16C54.375 17.6213 54.919 18.976 56.007 20.064C57.095 21.152 58.4283 21.696 60.007 21.696ZM79.3673 1.184V3.872C76.5513 3.63733 75.1433 4.85333 75.1433 7.52V8H79.3673V10.688H75.1433V24H72.3593V10.688H69.7993V8H72.3593V7.52C72.3593 5.344 72.9673 3.712 74.1833 2.624C75.3993 1.51467 77.1273 1.03467 79.3673 1.184Z" fill="#FFFEFD"/>
<path d="M89.711 1.184V3.872C86.895 3.63733 85.487 4.85333 85.487 7.52V8H89.711V10.688H85.487V24H82.703V10.688H80.143V8H82.703V7.52C82.703 5.344 83.311 3.712 84.527 2.624C85.743 1.51467 87.471 1.03467 89.711 1.184ZM104.204 10.752V8H106.988V24H104.204V21.248C102.838 23.36 100.822 24.416 98.1558 24.416C95.8944 24.416 93.9851 23.6053 92.4278 21.984C90.8491 20.3413 90.0598 18.3467 90.0598 16C90.0598 13.6747 90.8491 11.6907 92.4278 10.048C94.0064 8.40533 95.9158 7.584 98.1558 7.584C100.822 7.584 102.838 8.64 104.204 10.752ZM98.5078 21.728C100.129 21.728 101.484 21.184 102.572 20.096C103.66 18.9653 104.204 17.6 104.204 16C104.204 14.3787 103.66 13.024 102.572 11.936C101.484 10.8267 100.129 10.272 98.5078 10.272C96.9078 10.272 95.5638 10.8267 94.4758 11.936C93.3878 13.024 92.8438 14.3787 92.8438 16C92.8438 17.6 93.3878 18.9653 94.4758 20.096C95.5638 21.184 96.9078 21.728 98.5078 21.728ZM128.486 7.584C130.299 7.584 131.75 8.17067 132.838 9.344C133.947 10.5173 134.502 12.0853 134.502 14.048V24H131.718V14.144C131.718 12.928 131.398 11.9787 130.758 11.296C130.139 10.592 129.286 10.24 128.198 10.24C126.96 10.24 125.99 10.656 125.286 11.488C124.603 12.2987 124.262 13.504 124.262 15.104V24H121.478V14.144C121.478 12.928 121.168 11.9787 120.55 11.296C119.952 10.592 119.131 10.24 118.086 10.24C116.87 10.24 115.878 10.6667 115.11 11.52C114.363 12.352 113.99 13.5467 113.99 15.104V24H111.206V8H113.99V10.144C115.078 8.43733 116.667 7.584 118.758 7.584C120.912 7.584 122.48 8.49067 123.462 10.304C124.571 8.49067 126.246 7.584 128.486 7.584ZM153.722 17.28H140.314C140.591 18.688 141.242 19.7973 142.266 20.608C143.29 21.3973 144.57 21.792 146.106 21.792C148.218 21.792 149.754 21.0133 150.714 19.456L153.082 20.8C151.503 23.2107 149.157 24.416 146.042 24.416C143.525 24.416 141.455 23.6267 139.834 22.048C138.255 20.4267 137.466 18.4107 137.466 16C137.466 13.568 138.245 11.5627 139.802 9.984C141.359 8.384 143.375 7.584 145.85 7.584C148.197 7.584 150.106 8.416 151.578 10.08C153.071 11.7013 153.818 13.6853 153.818 16.032C153.818 16.4373 153.786 16.8533 153.722 17.28ZM145.85 10.208C144.378 10.208 143.141 10.624 142.138 11.456C141.157 12.288 140.549 13.4187 140.314 14.848H151.002C150.767 13.376 150.181 12.2347 149.242 11.424C148.303 10.6133 147.173 10.208 145.85 10.208Z" fill="#8942FE"/>
</svg>
